<?xml version="1.0"?>
<svg xmlns="http://www.w3.org/2000/svg" xmlns:xlink="http://www.w3.org/1999/xlink" version="1.1" id="Layer_1" x="0px" y="0px" viewBox="0 0 511.999 511.999" style="enable-background:new 0 0 511.999 511.999;" xml:space="preserve" width="512px" height="512px" class=""><g><g>
	<g>
		<path d="M510.358,52.983c-0.134-4.311-3.597-7.774-7.906-7.906l-53.108-1.638c-2.577-0.099-5.046,1.065-6.649,3.09    c-1.603,2.024-2.154,4.687-1.486,7.182l4.416,16.481l-16.481-4.416c-2.819-0.753-5.822,0.05-7.885,2.111    c-2.062,2.063-2.868,5.067-2.112,7.885l4.416,16.482l-16.482-4.416c-2.818-0.753-5.822,0.051-7.884,2.111    c-2.062,2.063-2.868,5.067-2.112,7.885l4.416,16.481l-16.481-4.416c-2.818-0.755-5.823,0.05-7.885,2.111l-23.084,23.085    c-2.062,2.063-2.868,5.067-2.112,7.885l4.416,16.482l-16.482-4.416c-2.818-0.753-5.822,0.051-7.883,2.111l-31.805,31.804    c-4.103-4.02-8.202-8.003-12.269-11.95c-13.032-12.645-26.091-25.286-38.506-38.543c-5.371-5.734-12.547-11.18-19.57-14.692    c-5.322-2.661-12.029-4.127-18.886-4.127c-0.319,0-0.637,0.02-0.953,0.057c-18.421,2.167-30.153,14.797-40.505,25.941    c-1.977,2.129-3.845,4.14-5.753,6.082c-3.158,3.216-3.111,8.384,0.104,11.542c3.216,3.164,8.384,3.117,11.542-0.099    c2.067-2.105,4.101-4.293,6.066-6.411c9.137-9.836,17.775-19.134,29.979-20.78c4.14,0.063,8.163,0.929,11.104,2.4    c5.014,2.505,9.099,6.345,13.408,9.85c1.71,1.391,3.143,3.098,4.661,4.69c11.671,12.243,23.802,24.034,35.94,35.81    c5.242,5.087,10.397,10.096,15.479,15.1c0.405,1.099,1.036,2.111,1.879,2.956l27.734,27.734    c4.665,4.667,8.678,9.476,10.141,16.018c1.065,4.768,0.669,9.779-1.088,14.333l-5.34,8.01    c-37.094,38.975-73.441,74.726-111.914,112.568c-5.16,5.075-10.329,10.159-15.509,15.26c-3.213,3.163-3.252,8.331-0.089,11.542    c1.598,1.622,3.706,2.435,5.816,2.435c2.068,0,4.137-0.781,5.727-2.346c5.178-5.1,10.345-10.181,15.503-15.254    c37.841-37.219,284.724-284.971,284.724-284.971c1.592-1.593,2.456-3.773,2.387-6.024L510.358,52.983z M333.322,223.117    c-7.034-7.787-14.257-15.314-21.55-22.653l28.429-28.427l25.584,6.855c2.818,0.754,5.822-0.05,7.885-2.111    c2.062-2.063,2.868-5.067,2.112-7.885l-6.855-25.586l16.42-16.42l25.584,6.856c2.815,0.754,5.822-0.05,7.885-2.111    c2.062-2.063,2.868-5.067,2.112-7.885l-4.416-16.482l16.481,4.416c2.819,0.754,5.823-0.05,7.885-2.111    c2.062-2.063,2.868-5.067,2.112-7.885l-4.416-16.482l16.482,4.416c2.816,0.754,5.822-0.05,7.884-2.111    c2.062-2.063,2.868-5.067,2.112-7.885l-5.233-19.526l34.458,1.063l0.188,6.099L335.966,225.76L333.322,223.117z M348.369,250.273    c-0.369-2.823-1.023-5.579-1.948-8.233c-0.274-0.937-0.558-1.869-0.855-2.791L495.158,89.656l0.414,13.415L348.369,250.273z" data-original="#000000" class="active-path" data-old_color="#000000" fill="#7F7F7F"/>
	</g>
</g><g>
	<g>
		<path d="M182.677,427.78c-3.111-3.26-8.277-3.385-11.54-0.272c-2.727,2.602-5.278,5.32-7.745,7.949    c-4.265,4.544-8.552,9.228-13.715,12.778c-5.48,3.768-10.096,3.546-16.522,3.37c-1.767-0.048-3.164-0.173-4.843-0.756    c-3.653-1.271-6.912-4.029-10.104-6.156c-10.77-10.762-21.673-21.422-32.222-31.735c-21.105-20.634-42.927-41.97-63.775-64.248    c-3.541-3.785-5.456-8.9-5.845-14.025c-0.323-4.239,0.35-11.769,3.398-15.113c26.799-29.407,54.936-56.86,82.155-83.418    c16.568-16.167,33.701-32.884,50.39-49.899c3.156-3.218,3.106-8.386-0.112-11.542c-3.219-3.155-8.386-3.106-11.542,0.112    c-16.564,16.888-33.63,33.541-50.135,49.645c-27.676,27.003-56.294,54.926-83.672,85.042c-2.996,3.295-4.823,9.354-5.79,13.589    c-2.922,12.812,0.262,26.525,8.951,36.454c0.06,0.068,0.12,0.134,0.182,0.201c21.126,22.582,43.116,44.082,64.383,64.874    c10.704,10.465,21.773,21.288,32.665,32.18c10.278,10.277,29.886,14.92,43.627,9.425c0.116-0.047,0.232-0.097,0.346-0.148    c10.157-4.618,17.237-12.162,24.084-19.457c2.421-2.58,4.709-5.017,7.109-7.308C185.665,436.209,185.787,431.043,182.677,427.78z" data-original="#000000" class="active-path" data-old_color="#000000" fill="#7F7F7F"/>
	</g>
</g><g>
	<g>
		<path d="M290.89,224.519c-11.091-11.089-29.644-11.078-40.718-0.001c-11.07,11.072-11.057,29.661,0,40.719    c5.33,5.33,12.844,7.997,20.359,7.997c7.513,0,15.027-2.665,20.36-7.998C301.981,254.146,301.969,235.595,290.89,224.519z     M279.348,253.694c-4.784,4.783-12.857,4.779-17.632,0c-4.796-4.798-4.787-12.846,0-17.631c4.8-4.798,12.844-4.788,17.632,0    C284.136,240.85,284.129,248.916,279.348,253.694z" data-original="#000000" class="active-path" data-old_color="#000000" fill="#7F7F7F"/>
	</g>
</g><g>
	<g>
		<path d="M246.343,269.791l-47.533-47.532c-6.79-6.793-15.818-10.534-25.422-10.534s-18.633,3.74-25.423,10.531l-39.788,39.788    c-0.002,0.002-0.003,0.003-0.005,0.005c-0.002,0.002-0.003,0.003-0.005,0.005l-39.789,39.788    c-14.018,14.018-14.018,36.829,0,50.848l47.533,47.532c6.791,6.792,15.819,10.532,25.423,10.532    c9.603,0,18.633-3.74,25.423-10.531l39.79-39.79c0.001-0.001,0.002-0.001,0.003-0.002c0,0,0.001-0.002,0.002-0.002l39.791-39.791    C260.362,306.621,260.362,283.81,246.343,269.791z M155.216,388.681c-3.707,3.707-8.638,5.749-13.88,5.749    c-5.243,0-10.173-2.043-13.881-5.75l-47.533-47.532c-7.654-7.654-7.654-20.109,0-27.762l34.021-34.021l75.295,75.294    L155.216,388.681z M234.801,309.094l-34.021,34.021l-75.295-75.294l34.022-34.022c3.708-3.707,8.637-5.749,13.88-5.749    s10.173,2.043,13.88,5.751l47.533,47.532C242.455,288.987,242.455,301.442,234.801,309.094z" data-original="#000000" class="active-path" data-old_color="#000000" fill="#7F7F7F"/>
	</g>
</g></g> </svg>
