<?xml version="1.0"?>
<svg xmlns="http://www.w3.org/2000/svg" height="512px" viewBox="0 -81 512 512" width="512px" class=""><g><path d="m298.667969 196.265625h-22.382813l11.332032-37.765625c1.546874-5.167969.5625-10.765625-2.660157-15.089844-3.21875-4.328125-8.296875-6.878906-13.691406-6.875h-33.382813c-7.527343.035156-14.152343 4.964844-16.347656 12.167969l-20.480468 68.265625c-1.550782 5.167969-.5625 10.765625 2.660156 15.09375 3.222656 4.324219 8.300781 6.875 13.699218 6.871094h27.875l-21.84375 65.570312c-1.292968 3.890625.363282 8.148438 3.941407 10.144532 3.578125 1.996093 8.074219 1.164062 10.703125-1.980469l73.675781-88.402344c4.242187-5.085937 5.15625-12.167969 2.351563-18.164063-2.804688-6-8.828126-9.832031-15.449219-9.835937zm-44.722657 70.734375 11.296876-33.902344c.867187-2.605468.429687-5.46875-1.179688-7.691406-1.605469-2.226562-4.183594-3.542969-6.925781-3.539062h-39.722657l20.476563-68.265626h33.382813l-11.332032 37.765626c-1.546875 5.167968-.5625 10.761718 2.65625 15.085937 3.21875 4.328125 8.292969 6.878906 13.6875 6.878906h22.382813zm0 0" data-original="#000000" class="active-path" data-old_color="#000000" fill="#7F7F7F"/><path d="m494.933594 93.867188h-17.066406c-9.425782 0-17.066407 7.640624-17.066407 17.066406v42.667968h-17.066406v-42.667968c0-14.140625-11.460937-25.601563-25.601563-25.601563h-136.53125v-17.066406h42.664063c9.425781 0 17.066406-7.640625 17.066406-17.066406v-8.53125c-.027343-23.554688-19.113281-42.6406252-42.664062-42.667969h-85.335938c-23.550781.0273438-42.636719 19.113281-42.664062 42.667969v8.53125c0 9.425781 7.640625 17.066406 17.066406 17.066406h42.664063v17.066406h-9.300782c-6.746094.039063-13.335937 2.019531-18.984375 5.710938l-63.695312 42.570312c-2.871094 1.878907-6.21875 2.890625-9.648438 2.921875h-26.371093c-14.136719 0-25.597657 11.460938-25.597657 25.597656v59.734376h-25.601562v-42.667969c0-9.425781-7.640625-17.066407-17.066407-17.066407h-17.066406c-9.425781 0-17.066406 7.640626-17.066406 17.066407v136.535156c0 9.425781 7.640625 17.066406 17.066406 17.066406h17.066406c9.425782 0 17.066407-7.640625 17.066407-17.066406v-42.667969h25.601562v51.199219c0 14.140625 11.460938 25.601563 25.597657 25.601563h179.203124c7.382813-.019532 14.5625-2.410157 20.476563-6.828126l88.75-66.558593c2.960937-2.203125 6.546875-3.398438 10.238281-3.414063h17.066406c14.140626 0 25.601563-11.460937 25.601563-25.601562v-42.664063h17.066406v42.664063c0 9.425781 7.640625 17.070312 17.066407 17.070312h17.066406c9.425781 0 17.066406-7.644531 17.066406-17.070312v-136.53125c0-9.425782-7.640625-17.066406-17.066406-17.066406zm-307.199219-51.199219c0-14.140625 11.460937-25.601563 25.597656-25.601563h85.335938c14.136719 0 25.597656 11.460938 25.597656 25.601563v8.53125h-136.53125zm59.730469 25.597656h17.070312v17.066406h-17.070312zm-213.332032 247.46875h-17.066406v-136.535156h17.066406zm17.066407-59.734375v-17.066406h25.601562v17.066406zm375.46875-8.535156c0 4.714844-3.820313 8.535156-8.535157 8.535156h-17.066406c-7.382812.015625-14.5625 2.410156-20.480468 6.828125l-88.746094 66.558594c-2.960938 2.203125-6.550782 3.398437-10.238282 3.414062h-179.203124c-4.710938 0-8.53125-3.820312-8.53125-8.535156v-162.132813c0-4.710937 3.820312-8.53125 8.53125-8.53125h26.371093c6.746094-.039062 13.335938-2.019531 18.984375-5.710937l63.695313-42.570313c2.871093-1.878906 6.21875-2.890624 9.648437-2.921874h197.035156c4.714844 0 8.535157 3.820312 8.535157 8.535156zm17.066406-59.730469v-17.066406h17.066406v17.066406zm51.199219 59.730469h-17.066406v-136.53125h17.066406zm0 0" data-original="#000000" class="active-path" data-old_color="#000000" fill="#7F7F7F"/><path d="m125.523438 173.140625c-3.421876-3.15625-8.695313-3.15625-12.117188 0-.75.832031-1.355469 1.78125-1.789062 2.816406-.480469 1.011719-.714844 2.125-.683594 3.242188-.042969 3.472656 2.027344 6.625 5.230468 7.96875 3.203126 1.34375 6.902344.613281 9.351563-1.851563 2.449219-2.460937 3.164063-6.164062 1.800781-9.359375-.433594-1.035156-1.039062-1.984375-1.792968-2.816406zm0 0" data-original="#000000" class="active-path" data-old_color="#000000" fill="#7F7F7F"/><path d="m119.464844 204.800781c-4.710938 0-8.53125 3.820313-8.53125 8.53125v76.800781c0 4.714844 3.820312 8.535157 8.53125 8.535157 4.714844 0 8.535156-3.820313 8.535156-8.535157v-76.800781c0-4.710937-3.820312-8.53125-8.535156-8.53125zm0 0" data-original="#000000" class="active-path" data-old_color="#000000" fill="#7F7F7F"/></g> </svg>
