<svg height="50" viewBox="-88 0 496 496" width="50" xmlns="http://www.w3.org/2000/svg"><path d="m200 32h-80v48h80zm-16 32h-48v-16h48zm0 0"/><path d="m192 416h-64c-17.527344 0-34.28125 8.375-44.808594 22.40625l-9.589844 12.792969 12.796876 9.59375 9.59375-12.792969c7.519531-10.015625 19.488281-16 32.007812-16h64c12.519531 0 24.488281 5.984375 32.007812 16l9.59375 12.800781 12.796876-9.59375-9.589844-12.808593c-10.527344-14.023438-27.28125-22.398438-44.808594-22.398438zm0 0"/><path d="m296 368h-12l6.398438-14.632812c9.027343-21.046876 13.601562-43.335938 13.601562-66.246094 0-10.546875-1-21.136719-2.96875-31.464844l-21.742188-114.136719c-4.640624-24.351562-24.753906-42.328125-48.929687-44.984375 1.015625-2.65625 1.640625-5.519531 1.640625-8.535156v-64c0-13.230469-10.769531-24-24-24h-96c-13.230469 0-24 10.769531-24 24v64c0 3.015625.625 5.871094 1.640625 8.535156-24.175781 2.65625-44.296875 20.640625-48.929687 44.984375l-21.742188 114.128907c-1.96875 10.335937-2.96875 20.917968-2.96875 31.472656 0 22.910156 4.574219 45.199218 13.601562 66.246094l6.277344 14.632812h-11.878906c-13.230469 0-24 10.769531-24 24v64c0 22.054688 17.945312 40 40 40h240c22.054688 0 40-17.945312 40-40v-64c0-13.230469-10.769531-24-24-24zm-32.433594-223.488281 21.746094 114.136719c1.785156 9.351562 2.6875 18.925781 2.6875 28.472656 0 20.734375-4.144531 40.894531-12.304688 59.949218l-10.839843 25.34375-.960938 1.921876c-4.816406 4.390624-7.894531 10.648437-7.894531 17.664062v19.617188c-4.792969-5.066407-10.207031-9.433594-16-13.203126v-283.054687c11.902344 5.128906 21.023438 15.785156 23.566406 29.152344zm-167.566406 15.488281h128v32h-128zm128 164.6875-16.6875-16.6875 16.6875-16.6875zm-64-113.375 24.6875 24.6875-24.6875 24.6875-24.6875-24.6875zm-36 13.375-16.6875-16.6875h33.375zm55.3125-16.6875h33.375l-16.6875 16.6875zm-30.625 64-24.6875 24.6875-24.6875-24.6875 24.6875-24.6875zm11.3125 11.3125 24.6875 24.6875-24.6875 24.6875-24.6875-24.6875zm11.3125-11.3125 24.6875-24.6875 24.6875 24.6875-24.6875 24.6875zm52.6875-19.3125-16.6875-16.6875 16.6875-16.6875zm-128-33.375 16.6875 16.6875-16.6875 16.6875zm0 72 16.6875 16.6875-16.6875 16.6875zm28 28 16.6875 16.6875h-33.375zm72 0 16.6875 16.6875h-33.375zm28-207.3125v32h-128v-32zm-128 240h128v38.183594c-10.113281-3.96875-20.9375-6.183594-32-6.183594h-64c-11.0625 0-21.886719 2.214844-32 6.183594zm8-328c0-4.40625 3.585938-8 8-8h96c4.414062 0 8 3.59375 8 8v64c0 4.40625-3.585938 8-8 8h-96c-4.414062 0-8-3.59375-8-8zm-69.3125 234.648438 21.746094-114.136719c2.542968-13.367188 11.664062-24.03125 23.566406-29.152344v283.054687c-5.792969 3.769532-11.207031 8.136719-16 13.203126v-19.617188c0-6.953125-3.015625-13.160156-7.742188-17.550781l-11.945312-27.386719c-8.167969-19.046875-12.3125-39.214844-12.3125-59.941406 0-9.546875.902344-19.121094 2.6875-28.472656zm269.3125 197.351562c0 13.230469-10.769531 24-24 24h-240c-13.230469 0-24-10.769531-24-24v-64c0-4.414062 3.585938-8 8-8h16c4.414062 0 8 3.585938 8 8v40h20l2.398438-3.191406c13.53125-18.039063 35.066406-28.808594 57.601562-28.808594h64c22.535156 0 44.070312 10.769531 57.601562 28.808594l2.398438 3.191406h20v-40c0-4.414062 3.585938-8 8-8h16c4.414062 0 8 3.585938 8 8zm0 0"/></svg>